<?xml version="1.0" standalone="no"?>
<!DOCTYPE svg PUBLIC "-//W3C//DTD SVG 20010904//EN"
 "http://www.w3.org/TR/2001/REC-SVG-20010904/DTD/svg10.dtd">
<svg version="1.0" xmlns="http://www.w3.org/2000/svg"
 width="200.000000pt" height="200.000000pt" viewBox="0 0 200.000000 200.000000"
 preserveAspectRatio="xMidYMid meet">

<g transform="translate(0.000000,200.000000) scale(0.100000,-0.100000)"
fill="#000000" stroke="none">
<path d="M409 1884 c-103 -31 -186 -111 -231 -221 l-23 -58 -3 -560 c-2 -373
1 -582 8 -625 21 -124 93 -227 196 -280 44 -23 61 -25 167 -25 l119 0 13 38
c16 48 40 74 88 98 l37 19 0 238 0 237 -48 17 c-95 34 -153 117 -160 229 -8
128 60 222 191 263 16 5 17 25 17 243 l0 238 -42 20 c-36 17 -48 31 -73 82
l-30 63 -90 -1 c-49 0 -111 -7 -136 -15z"/>
<path d="M970 1865 c-15 -46 -61 -99 -100 -115 l-30 -13 2 -239 3 -240 52 -20
c65 -24 117 -81 140 -155 l17 -53 393 0 394 0 -3 303 -3 302 -26 55 c-39 82
-90 135 -167 172 l-67 33 -296 3 -297 3 -12 -36z"/>
<path d="M1044 943 c-20 -83 -82 -154 -156 -181 l-48 -17 0 -237 0 -238 39
-20 c42 -21 79 -65 90 -108 l7 -27 310 0 309 0 50 27 c63 34 125 98 161 168
l29 55 3 303 3 302 -395 0 -396 0 -6 -27z"/>
</g>
</svg>
